<svg version="1.1" viewBox="0.0 0.0 960.0 540.0" fill="none" stroke="none" stroke-linecap="square" stroke-miterlimit="10" xmlns:xlink="http://www.w3.org/1999/xlink" xmlns="http://www.w3.org/2000/svg"><clipPath id="g19cbc1e3eb4_0_0.0"><path d="m0 0l960.0 0l0 540.0l-960.0 0l0 -540.0z" clip-rule="nonzero"/></clipPath><g clip-path="url(#g19cbc1e3eb4_0_0.0)"><path fill="#ffffff" d="m0 0l960.0 0l0 540.0l-960.0 0z" fill-rule="evenodd"/><path fill="#000000" fill-opacity="0.0" d="m7.329443 7.3747067l538.06714 0l0 525.06226l-538.06714 0z" fill-rule="evenodd"/><path stroke="#000000" stroke-width="4.0" stroke-linejoin="round" stroke-linecap="butt" d="m7.329443 7.3747067l538.06714 0l0 525.06226l-538.06714 0z" fill-rule="evenodd"/><path fill="#ffffff" d="m56.587345 189.65105l843.2924 0l0 160.53911l-843.2924 0z" fill-rule="evenodd"/><path fill="#000000" fill-opacity="0.0" d="m110.137474 169.19948l796.4527 0l0 180.9907l-796.4527 0z" fill-rule="evenodd"/><path fill="#000000" d="m137.68434 300.7307l0 -65.23436l-4.609375 0q-1.953125 0 -2.8125 -0.75q-0.84375 -0.75 -0.84375 -1.984375q0 -1.234375 0.84375 -1.984375q0.859375 -0.75 2.8125 -0.75l29.421875 0q6.90625 0 12.59375 2.875q5.703125 2.859375 8.6875 6.5q5.140625 6.1875 7.8125 13.09375q1.890625 4.9999847 1.890625 11.843735l0 7.546875q0 8.40625 -3.71875 16.28125q-3.703125 7.875 -12.359375 13.734375q-6.4375 4.296875 -14.90625 4.296875l-29.421875 0q-1.953125 0 -2.8125 -0.78125q-0.84375 -0.78125 -0.84375 -1.953125q0 -1.234375 0.84375 -1.984375q0.859375 -0.75 2.8125 -0.75l4.609375 0zm5.46875 0l19.859375 0q6.90625 0 12.921875 -4.484375q6.03125 -4.5 9.046875 -10.78125q3.03125 -6.28125 3.03125 -12.40625l0 -9.890625q0 -5.078125 -1.625 -9.04686q-2.34375 -5.796875 -6.640625 -11.0q-2.34375 -2.875 -6.90625 -5.25q-4.546875 -2.375 -9.828125 -2.375l-19.859375 0l0 65.23436zm89.46303 -50.906235l0 13.79686q10.671875 -9.64061 15.96875 -12.406235q5.3125 -2.765625 9.8125 -2.765625q4.875 0 9.0625 3.296875q4.203125 3.28125 4.203125 4.9687347q0 1.25 -0.8125 2.0625q-0.8125 0.8125 -2.046875 0.8125q-0.65625 0 -1.109375 -0.21875q-0.453125 -0.234375 -1.6875 -1.484375q-2.28125 -2.2656097 -3.96875 -3.1093597q-1.6875 -0.859375 -3.328125 -0.859375q-3.578125 0 -8.625 2.8749847q-5.046875 2.859375 -17.46875 13.984375l0 29.953125l24.21875 0q2.015625 0 2.859375 0.75q0.84375 0.75 0.84375 1.984375q0 1.171875 -0.84375 1.953125q-0.84375 0.78125 -2.859375 0.78125l-42.90625 0q-1.953125 0 -2.8125 -0.75q-0.84375 -0.75 -0.84375 -1.921875q0 -1.109375 0.8125 -1.84375q0.828125 -0.75 2.84375 -0.75l13.21875 0l0 -45.57811l-10.09375 0q-1.953125 0 -2.8125 -0.78125q-0.84375 -0.78125 -0.84375 -2.015625q0 -1.171875 0.8125 -1.953125q0.828125 -0.78125 2.84375 -0.78125l15.5625 0zm102.27554 56.374985l0 -7.875q-11.921875 10.015625 -25.46875 10.015625q-9.828125 0 -15.359375 -4.96875q-5.53125 -4.984375 -5.53125 -12.203125q0 -7.953125 7.28125 -13.875q7.296875 -5.921875 21.296875 -5.921875q3.78125 0 8.203125 0.484375q4.421875 0.484375 9.578125 1.53125l0 -8.859375q0 -4.484375 -4.171875 -7.796875q-4.171875 -3.3281097 -12.5 -3.3281097q-6.375 0 -17.90625 3.7031097q-2.078125 0.65625 -2.671875 0.65625q-1.03125 0 -1.78125 -0.78125q-0.75 -0.78125 -0.75 -1.9531097q0 -1.109375 0.640625 -1.75q0.921875 -0.984375 7.359375 -2.671875q10.15625 -2.734375 15.375 -2.734375q10.34375 0 16.140625 5.109375q5.796875 5.1093597 5.796875 11.54686l0 36.203125l7.28125 0q2.015625 0 2.859375 0.75q0.859375 0.75 0.859375 1.984375q0 1.171875 -0.859375 1.953125q-0.84375 0.78125 -2.859375 0.78125l-12.8125 0zm0 -27.21875q-3.84375 -1.09375 -8.140625 -1.609375q-4.296875 -0.53125 -9.046875 -0.53125q-11.921875 0 -18.625 5.140625q-5.078125 3.84375 -5.078125 9.1875q0 4.9375 3.875 8.328125q3.875 3.390625 11.296875 3.390625q7.09375 0 13.171875 -2.828125q6.09375 -2.84375 12.546875 -9.03125l0 -12.046875zm39.38492 -29.156235l0 5.53125q6.953125 -7.484375 13.984375 -7.484375q4.234375 0 7.421875 2.25q3.203125 2.234375 5.34375 6.7968597q3.640625 -4.5624847 7.390625 -6.7968597q3.75 -2.25 7.515625 -2.25q5.921875 0 9.4375 3.84375q4.625 4.9374847 4.625 10.79686l0 38.21875l4.625 0q1.953125 0 2.796875 0.75q0.84375 0.75 0.84375 1.984375q0 1.171875 -0.84375 1.953125q-0.84375 0.78125 -2.796875 0.78125l-10.09375 0l0 -43.15625q0 -4.171875 -2.546875 -6.90625q-2.53125 -2.7343597 -5.84375 -2.7343597q-3.0 0 -6.328125 2.25q-3.3125 2.2343597 -7.546875 8.812485l0 36.265625l4.5625 0q1.953125 0 2.796875 0.75q0.84375 0.75 0.84375 1.984375q0 1.171875 -0.84375 1.953125q-0.84375 0.78125 -2.796875 0.78125l-10.09375 0l0 -42.765625q0 -4.375 -2.578125 -7.203125q-2.5625 -2.8281097 -5.75 -2.8281097q-2.9375 0 -5.796875 1.890625q-3.96875 2.6718597 -8.328125 9.17186l0 36.265625l4.609375 0q1.953125 0 2.796875 0.75q0.859375 0.75 0.859375 1.984375q0 1.171875 -0.859375 1.953125q-0.84375 0.78125 -2.796875 0.78125l-14.7031555 0q-1.953125 0 -2.8125 -0.78125q-0.84375 -0.78125 -0.84375 -1.953125q0 -1.234375 0.84375 -1.984375q0.859375 -0.75 2.8125 -0.75l4.6250305 0l0 -45.374985l-4.6250305 0q-1.953125 0 -2.8125 -0.78125q-0.84375 -0.78125 -0.84375 -2.015625q0 -1.171875 0.84375 -1.953125q0.859375 -0.78125 2.8125 -0.78125l10.0937805 0zm120.63489 56.374985l0 -7.875q-11.921875 10.015625 -25.46875 10.015625q-9.828125 0 -15.359375 -4.96875q-5.53125 -4.984375 -5.53125 -12.203125q0 -7.953125 7.28125 -13.875q7.296875 -5.921875 21.296875 -5.921875q3.78125 0 8.203125 0.484375q4.421875 0.484375 9.578125 1.53125l0 -8.859375q0 -4.484375 -4.171875 -7.796875q-4.171875 -3.3281097 -12.5 -3.3281097q-6.375 0 -17.90625 3.7031097q-2.078125 0.65625 -2.671875 0.65625q-1.03125 0 -1.78125 -0.78125q-0.75 -0.78125 -0.75 -1.9531097q0 -1.109375 0.640625 -1.75q0.921875 -0.984375 7.359375 -2.671875q10.15625 -2.734375 15.375 -2.734375q10.34375 0 16.140625 5.109375q5.796875 5.1093597 5.796875 11.54686l0 36.203125l7.28125 0q2.015625 0 2.859375 0.75q0.859375 0.75 0.859375 1.984375q0 1.171875 -0.859375 1.953125q-0.84375 0.78125 -2.859375 0.78125l-12.8125 0zm0 -27.21875q-3.84375 -1.09375 -8.140625 -1.609375q-4.296875 -0.53125 -9.046875 -0.53125q-11.921875 0 -18.625 5.140625q-5.078125 3.84375 -5.078125 9.1875q0 4.9375 3.875 8.328125q3.875 3.390625 11.296875 3.390625q7.09375 0 13.171875 -2.828125q6.09375 -2.84375 12.546875 -9.03125l0 -12.046875zm53.056732 -29.156235l29.6875 0q1.953125 0 2.796875 0.78125q0.84375 0.78125 0.84375 2.015625q0 1.171875 -0.84375 1.953125q-0.84375 0.78125 -2.796875 0.78125l-29.6875 0l0 36.39061q0 4.75 3.796875 7.953125q3.8125 3.1875 11.171875 3.1875q5.53125 0 11.96875 -1.65625q6.453125 -1.671875 10.03125 -3.75q1.296875 -0.84375 2.15625 -0.84375q1.03125 0 1.8125 0.8125q0.78125 0.8125 0.78125 1.921875q0 0.96875 -0.84375 1.8125q-2.078125 2.15625 -10.125 4.65625q-8.03125 2.5 -15.390625 2.5q-9.578125 0 -15.25 -4.484375q-5.65625 -4.484375 -5.65625 -12.109375l0 -36.39061l-10.078125 0q-1.953125 0 -2.8125 -0.78125q-0.84375 -0.78125 -0.84375 -2.015625q0 -1.171875 0.84375 -1.953125q0.859375 -0.78125 2.8125 -0.78125l10.078125 0l0 -16.140625q0 -1.953125 0.78125 -2.796875q0.78125 -0.859375 1.953125 -0.859375q1.25 0 2.03125 0.859375q0.78125 0.84375 0.78125 2.796875l0 16.140625zm84.69739 0l0 13.79686q10.671875 -9.64061 15.96875 -12.406235q5.3125 -2.765625 9.8125 -2.765625q4.875 0 9.0625 3.296875q4.203125 3.28125 4.203125 4.9687347q0 1.25 -0.8125 2.0625q-0.8125 0.8125 -2.046875 0.8125q-0.65625 0 -1.109375 -0.21875q-0.453125 -0.234375 -1.6875 -1.484375q-2.28125 -2.2656097 -3.96875 -3.1093597q-1.6875 -0.859375 -3.328125 -0.859375q-3.578125 0 -8.625 2.8749847q-5.046875 2.859375 -17.46875 13.984375l0 29.953125l24.21875 0q2.015625 0 2.859375 0.75q0.84375 0.75 0.84375 1.984375q0 1.171875 -0.84375 1.953125q-0.84375 0.78125 -2.859375 0.78125l-42.90625 0q-1.953125 0 -2.8125 -0.75q-0.84375 -0.75 -0.84375 -1.921875q0 -1.109375 0.8125 -1.84375q0.828125 -0.75 2.84375 -0.75l13.21875 0l0 -45.57811l-10.09375 0q-1.953125 0 -2.8125 -0.78125q-0.84375 -0.78125 -0.84375 -2.015625q0 -1.171875 0.8125 -1.953125q0.828125 -0.78125 2.84375 -0.78125l15.5625 0zm117.10364 28.312485q0 12.5 -8.953125 21.359375q-8.9375 8.84375 -21.578125 8.84375q-12.75 0 -21.671875 -8.875q-8.921875 -8.890625 -8.921875 -21.328125q0 -12.5 8.921875 -21.375q8.921875 -8.89061 21.671875 -8.89061q12.640625 0 21.578125 8.85936q8.953125 8.84375 8.953125 21.40625zm-5.53125 0q0 -10.28125 -7.328125 -17.5q-7.3125 -7.2343597 -17.734375 -7.2343597q-10.40625 0 -17.734375 7.2656097q-7.328125 7.25 -7.328125 17.46875q0 10.15625 7.328125 17.453125q7.328125 7.296875 17.734375 7.296875q10.421875 0 17.734375 -7.265625q7.328125 -7.265625 7.328125 -17.484375zm37.306763 -28.312485l0 8.26561q5.734375 -5.7968597 10.34375 -7.9999847q4.625 -2.21875 10.421875 -2.21875q6.25 0 11.390625 2.671875q3.65625 1.953125 6.609375 6.4843597q2.96875 4.515625 2.96875 9.265625l0 34.4375l4.625 0q1.953125 0 2.796875 0.75q0.84375 0.75 0.84375 1.984375q0 1.171875 -0.84375 1.953125q-0.84375 0.78125 -2.796875 0.78125l-14.65625 0q-2.015625 0 -2.859375 -0.78125q-0.84375 -0.78125 -0.84375 -1.953125q0 -1.234375 0.84375 -1.984375q0.84375 -0.75 2.859375 -0.75l4.5625 0l0 -33.53125q0 -5.796875 -4.234375 -9.796875q-4.234375 -3.9999847 -11.328125 -3.9999847q-5.40625 0 -9.375 2.1875q-3.96875 2.1718597 -11.328125 10.82811l0 34.3125l6.1875 0q1.953125 0 2.796875 0.75q0.84375 0.75 0.84375 1.984375q0 1.171875 -0.84375 1.953125q-0.84375 0.78125 -2.796875 0.78125l-17.84375 0q-1.953125 0 -2.796875 -0.78125q-0.84375 -0.78125 -0.84375 -1.953125q0 -1.234375 0.84375 -1.984375q0.84375 -0.75 2.796875 -0.75l6.1875 0l0 -45.374985l-4.625 0q-1.953125 0 -2.796875 -0.78125q-0.84375 -0.78125 -0.84375 -2.015625q0 -1.171875 0.84375 -1.953125q0.84375 -0.78125 2.796875 -0.78125l10.09375 0z" fill-rule="nonzero"/></g></svg>

